<svg preserveAspectRatio="none" width="100%" height="100%" overflow="visible" style="display: block;" viewBox="0 0 13.0667 13.0667" fill="none" xmlns="http://www.w3.org/2000/svg">
<g id="Group">
<path id="Vector" d="M6.53334 9.19884C8.0061 9.19884 9.20001 8.00493 9.20001 6.53217C9.20001 5.05941 8.0061 3.86551 6.53334 3.86551C5.06058 3.86551 3.86667 5.05941 3.86667 6.53217C3.86667 8.00493 5.06058 9.19884 6.53334 9.19884Z" stroke="var(--stroke-0, white)" stroke-width="1.06667" stroke-linecap="round" stroke-linejoin="round"/>
<path id="Vector_2" d="M9.20001 4.53217V6.53217C9.20001 8.00551 9.94667 9.19884 10.8667 9.19884C11.7867 9.19884 12.5333 8.00551 12.5333 6.53217C12.5331 5.2276 12.1077 3.95866 11.3215 2.91758C10.5353 1.8765 9.43126 1.12002 8.17657 0.762736C6.92187 0.405452 5.58492 0.466836 4.36825 0.937589C3.15157 1.40834 2.12148 2.26281 1.43401 3.37155C0.746553 4.48029 0.439186 5.78288 0.558478 7.08198C0.677769 8.38109 1.21722 9.60592 2.0951 10.5709C2.97299 11.5359 4.14147 12.1885 5.42353 12.4298C6.70559 12.6711 8.03136 12.488 9.20001 11.9082" stroke="var(--stroke-0, white)" stroke-width="1.06667" stroke-linecap="round" stroke-linejoin="round"/>
</g>
</svg>
