<svg preserveAspectRatio="none" width="100%" height="100%" overflow="visible" style="display: block;" viewBox="0 0 19.6 17.6" fill="none" xmlns="http://www.w3.org/2000/svg">
<g id="Group">
<path id="Vector" d="M9.8 4.8H0.8V10.8H9.8L15.8 15.8V0.800001L9.8 4.8Z" stroke="var(--stroke-0, #192B48)" stroke-width="1.6" stroke-linecap="round" stroke-linejoin="round"/>
<path id="Vector_2" d="M7.8 4.8V10.8" stroke="var(--stroke-0, #192B48)" stroke-width="1.6" stroke-linecap="round" stroke-linejoin="round"/>
<path id="Vector_3" d="M4.8 10.8V16.8H7.8V10.8" stroke="var(--stroke-0, #192B48)" stroke-width="1.6" stroke-linecap="round" stroke-linejoin="round"/>
<path id="Vector_4" d="M15.8 10.8C16.194 10.8 16.5841 10.7224 16.9481 10.5716C17.312 10.4209 17.6427 10.1999 17.9213 9.92132C18.1999 9.64275 18.4209 9.31203 18.5716 8.94805C18.7224 8.58407 18.8 8.19397 18.8 7.8C18.8 7.40604 18.7224 7.01593 18.5716 6.65195C18.4209 6.28797 18.1999 5.95726 17.9213 5.67868C17.6427 5.4001 17.312 5.17913 16.9481 5.02836C16.5841 4.8776 16.194 4.8 15.8 4.8" stroke="var(--stroke-0, #192B48)" stroke-width="1.6" stroke-linecap="round" stroke-linejoin="round"/>
</g>
</svg>
