<svg preserveAspectRatio="none" width="100%" height="100%" overflow="visible" style="display: block;" viewBox="0 0 16.8889 16.8889" fill="none" xmlns="http://www.w3.org/2000/svg">
<g id="Frame 2312">
<path id="C" d="M16.3021 8.48341C16.3021 7.3775 16.1057 6.35162 15.7128 5.40578C15.3054 4.47448 14.7451 3.6596 14.0321 2.96113C13.3045 2.26267 12.4678 1.72426 11.522 1.34592C10.5616 0.967587 9.53573 0.778418 8.44437 0.778418C7.35301 0.778418 6.33441 0.967587 5.38856 1.34592C4.42817 1.72426 3.59146 2.26267 2.87844 2.96113C2.16542 3.6596 1.60519 4.47448 1.19775 5.40578C0.790309 6.35162 0.586589 7.3775 0.586589 8.48341C0.586589 9.72028 0.790309 10.7898 1.19775 11.692C1.60519 12.5942 2.15814 13.3945 2.85661 14.093L4.55913 12.3905C4.06438 11.9394 3.67877 11.3864 3.40229 10.7316C3.12582 10.0913 2.98758 9.34194 2.98758 8.48341C2.98758 7.72673 3.11854 7.03554 3.38047 6.40983C3.64239 5.78411 4.02073 5.23843 4.51548 4.77279C4.99568 4.32169 5.57046 3.97246 6.23982 3.72509C6.90919 3.47771 7.64404 3.35402 8.44437 3.35402C9.2447 3.35402 9.97954 3.47771 10.6489 3.72509C11.3183 3.97246 11.9003 4.32169 12.3951 4.77279C12.8753 5.23843 13.2463 5.78411 13.5083 6.40983C13.7702 7.03554 13.9012 7.72673 13.9012 8.48341C13.9012 9.4147 13.7629 10.2005 13.4864 10.8407C13.1954 11.4956 12.8025 12.0485 12.3078 12.4996L14.0103 14.2021C14.7233 13.5037 15.2835 12.6815 15.691 11.7357C16.0984 10.7898 16.3021 9.70573 16.3021 8.48341Z" fill="var(--fill-0, #CFD9E9)"/>
</g>
</svg>
