<svg preserveAspectRatio="none" width="100%" height="100%" overflow="visible" style="display: block;" viewBox="0 0 19.6 18.6" fill="none" xmlns="http://www.w3.org/2000/svg">
<g id="Group">
<path id="Vector" d="M18.8 0.8H19.6V0H18.8V0.8ZM0.8 0.8V0H0V0.8H0.8ZM0.8 17.8H0C0 18.1236 0.194914 18.4153 0.493853 18.5391C0.792793 18.6629 1.13689 18.5945 1.36569 18.3657L0.8 17.8ZM3.8 14.8V14H3.46863L3.23431 14.2343L3.8 14.8ZM18.8 14.8V15.6H19.6V14.8H18.8ZM18.8 0.8V0H0.8V0.8V1.6H18.8V0.8ZM0.8 0.8H0V17.8H0.8H1.6V0.8H0.8ZM0.8 17.8L1.36569 18.3657L4.36569 15.3657L3.8 14.8L3.23431 14.2343L0.234315 17.2343L0.8 17.8ZM3.8 14.8V15.6H18.8V14.8V14H3.8V14.8ZM18.8 14.8H19.6V0.8H18.8H18V14.8H18.8Z" fill="var(--stroke-0, #55647B)"/>
<path id="Vector_2" d="M5.8 7.8H5.81" stroke="var(--stroke-0, #55647B)" stroke-width="1.6" stroke-linecap="round" stroke-linejoin="round"/>
<path id="Vector_3" d="M9.8 7.8H9.81" stroke="var(--stroke-0, #55647B)" stroke-width="1.6" stroke-linecap="round" stroke-linejoin="round"/>
<path id="Vector_4" d="M13.8 7.8H13.81" stroke="var(--stroke-0, #55647B)" stroke-width="1.6" stroke-linecap="round" stroke-linejoin="round"/>
</g>
</svg>
