<svg preserveAspectRatio="none" width="100%" height="100%" overflow="visible" style="display: block;" viewBox="0 0 33.8818 23.7289" fill="none" xmlns="http://www.w3.org/2000/svg">
<path id="Vector" d="M33.1341 3.71581C32.9397 2.9976 32.5606 2.34284 32.0345 1.81671C31.5084 1.29059 30.8537 0.911463 30.1355 0.717088C27.5061 0 16.924 0 16.924 0C16.924 0 6.34132 0.0217058 3.712 0.738794C2.99378 0.933181 2.33902 1.31233 1.81292 1.83848C1.28682 2.36462 0.907731 3.01942 0.713408 3.73765C-0.081901 8.40944 -0.390416 15.5282 0.735246 20.0131C0.92959 20.7313 1.30869 21.3861 1.83479 21.9122C2.36089 22.4383 3.01564 22.8174 3.73383 23.0118C6.36316 23.7289 16.9456 23.7289 16.9456 23.7289C16.9456 23.7289 27.5279 23.7289 30.157 23.0118C30.8753 22.8175 31.53 22.4383 32.0562 21.9122C32.5823 21.3861 32.9614 20.7313 33.1558 20.0131C33.9946 15.3347 34.2531 8.22031 33.1341 3.71581Z" fill="var(--fill-0, #FF0000)"/>
</svg>
