<svg preserveAspectRatio="none" width="100%" height="100%" overflow="visible" style="display: block;" viewBox="0 0 325.753 122.8" fill="none" xmlns="http://www.w3.org/2000/svg">
<g id="Line">
<path id="Line Gradient" d="M3.94728 52.1436L0.753195 43.2209V122.8H325.753V11.6609H302.596L294.611 3.54939L289.021 18.9612L281.036 23.8281V17.3389L277.043 20.5835L274.648 8.41629L272.252 11.6609L269.856 6.79399L265.864 14.0943L262.67 10.0386L256.281 15.7166L254.684 14.0943L250.692 20.5835L247.498 15.7166L244.304 23.8281L242.707 18.9612L239.512 23.8281L235.52 17.3389L233.124 23.8281H223.542L215.557 17.3389L213.161 20.5835L210.765 17.3389L206.773 22.2058L204.377 18.9612L202.78 20.5835L198.788 17.3389L196.392 19.7724L193.398 6.79399L190.004 9.22744L188.307 0.800024L185.213 57.0105L182.291 28.3555L178.824 55.3882L175.63 50.8286V55.3882V61.0662L171.638 62.6885L170.839 70.8L167.645 61.0662L166.048 57.8216L163.652 60.2551V55.3882H160.458L158.861 61.0662H154.869L152.473 64.3108L150.876 60.2551L148.48 64.3108L145.286 55.3882L141.294 57.8216L138.898 52.1436L137.301 57.8216L134.906 52.1436L133.308 64.3108L130.114 57.8216L127.719 69.1777L125.323 64.3108L122.129 61.0662L118.136 60.2551L111.748 52.9547L112.547 61.0662L108.554 60.2551L105.36 65.9331L95.7778 68.3666L90.1881 60.2551L86.1954 69.1777L84.5984 58.6328L83.0014 67.5554L79.8073 52.1436L75.0161 60.2551L69.4264 44.8432L66.2323 53.7659L63.8367 46.4655L57.4485 52.1436L54.2544 48.0878L51.0603 50.5213L48.6647 46.4655L43.075 52.1436L35.8883 46.4655L30.2987 55.3882L27.1045 48.899L22.3134 55.3882L19.9178 48.0878L16.7237 52.1436L14.3281 44.8432L12.7311 50.5213L10.3355 53.7659L3.94728 52.1436Z" fill="url(#paint0_linear_0_63)"/>
<path id="Line_2" d="M0.753195 43.2209L3.94728 52.1436L10.3355 53.7659L12.7311 50.5213L14.3281 44.8432L16.7237 52.1436L19.9178 48.0878L22.3134 55.3882L27.1045 48.899L30.2987 55.3882L35.8883 46.4655L43.075 52.1436L48.6647 46.4655L51.0603 50.5213L54.2544 48.0878L57.4485 52.1436L63.8367 46.4655L66.2323 53.7659L69.4264 44.8432L75.0161 60.2551L79.8073 52.1436L83.0014 67.5554L84.5984 58.6328L86.1954 69.1777L90.1881 60.2551L95.7778 68.3666L105.36 65.9331L108.554 60.2551L112.547 61.0662L111.748 52.9547L118.136 60.2551L122.129 61.0662L125.323 64.3108L127.719 69.1777L130.114 57.8216L133.308 64.3108L134.906 52.1436L137.301 57.8216L138.898 52.1436L141.294 57.8216L145.286 55.3882L148.48 64.3108L150.876 60.2551L152.473 64.3108L154.869 61.0662H158.861L160.458 55.3882H163.652V60.2551L166.048 57.8216L167.645 61.0662L170.839 70.8L171.638 62.6885L175.63 61.0662V55.3882V50.8286L178.824 55.3882L182.291 28.3555L185.213 57.0105L188.307 0.800024L190.004 9.22744L193.398 6.79399L196.392 19.7724L198.788 17.3389L202.78 20.5835L204.377 18.9612L206.773 22.2058L210.765 17.3389L213.161 20.5835L215.557 17.3389L223.542 23.8281H233.124L235.52 17.3389L239.512 23.8281L242.707 18.9612L244.304 23.8281L247.498 15.7166L250.692 20.5835L254.684 14.0943L256.281 15.7166L262.67 10.0386L265.864 14.0943L269.856 6.79399L272.252 11.6609L274.648 8.41629L277.043 20.5835L281.036 17.3389V23.8281L289.021 18.9612L294.611 3.54939L302.596 11.6609H325.753" stroke="var(--stroke-0, #55647B)" stroke-width="1.6" stroke-linejoin="round"/>
</g>
<defs>
<linearGradient id="paint0_linear_0_63" x1="163.253" y1="0.800024" x2="163.253" y2="122.8" gradientUnits="userSpaceOnUse">
<stop stop-color="#759AC6" stop-opacity="0.5"/>
<stop offset="1" stop-color="#ECF1F4" stop-opacity="0"/>
</linearGradient>
</defs>
</svg>
