<svg preserveAspectRatio="none" width="100%" height="100%" overflow="visible" style="display: block;" viewBox="0 0 20 20" fill="none" xmlns="http://www.w3.org/2000/svg">
<g id="Group">
<path id="Vector" d="M5 3C3.89543 3 3 3.89543 3 5V6.17157C3 6.70201 2.78929 7.21071 2.41421 7.58579L1.41421 8.58579C0.633166 9.36683 0.633165 10.6332 1.41421 11.4142L2.41421 12.4142C2.78929 12.7893 3 13.298 3 13.8284V15C3 16.1046 3.89543 17 5 17H6.17157C6.70201 17 7.21071 17.2107 7.58579 17.5858L8.58579 18.5858C9.36683 19.3668 10.6332 19.3668 11.4142 18.5858L12.4142 17.5858C12.7893 17.2107 13.298 17 13.8284 17H15C16.1046 17 17 16.1046 17 15V13.8284C17 13.298 17.2107 12.7893 17.5858 12.4142L18.5858 11.4142C19.3668 10.6332 19.3668 9.36684 18.5858 8.58579L17.5858 7.58579C17.2107 7.21071 17 6.70201 17 6.17157V5C17 3.89543 16.1046 3 15 3H13.8284C13.298 3 12.7893 2.78929 12.4142 2.41421L11.4142 1.41421C10.6332 0.633166 9.36684 0.633165 8.58579 1.41421L7.58579 2.41421C7.21071 2.78929 6.70201 3 6.17157 3H5Z" stroke="var(--stroke-0, white)" stroke-width="1.6" stroke-linecap="round" stroke-linejoin="round"/>
<path id="Vector_2" d="M10 13C11.6569 13 13 11.6569 13 10C13 8.34315 11.6569 7 10 7C8.34315 7 7 8.34315 7 10C7 11.6569 8.34315 13 10 13Z" stroke="var(--stroke-0, white)" stroke-width="1.6" stroke-linecap="round" stroke-linejoin="round"/>
</g>
</svg>
