<svg xmlns="http://www.w3.org/2000/svg" viewBox="0 0 200 200" role="img" aria-label="Top up QR from Figma node 1:5256">
  <rect width="200" height="200" fill="#000"/>
  <rect x="60.6000" y="12.1200" width="6.0600" height="6.0600" fill="#40FF96"/>
  <rect x="72.7200" y="12.1200" width="6.0600" height="6.0600" fill="#40FF96"/>
  <rect x="103.0200" y="12.1200" width="6.0800" height="6.0600" fill="#40FF96"/>
  <rect x="109.1000" y="12.1200" width="6.0600" height="6.0600" fill="#40FF96"/>
  <rect x="115.1600" y="12.1200" width="6.0600" height="6.0600" fill="#40FF96"/>
  <rect x="60.6000" y="18.1800" width="6.0600" height="6.0600" fill="#40FF96"/>
  <rect x="72.7200" y="18.1800" width="6.0600" height="6.0600" fill="#40FF96"/>
  <rect x="78.7800" y="18.1800" width="6.0600" height="6.0600" fill="#40FF96"/>
  <rect x="84.8400" y="18.1800" width="6.0600" height="6.0600" fill="#40FF96"/>
  <rect x="109.1000" y="18.1800" width="6.0600" height="6.0600" fill="#40FF96"/>
  <rect x="127.2800" y="18.1800" width="6.0600" height="6.0600" fill="#40FF96"/>
  <rect x="60.6000" y="24.2400" width="6.0600" height="6.0600" fill="#40FF96"/>
  <rect x="66.6600" y="24.2400" width="6.0600" height="6.0600" fill="#40FF96"/>
  <rect x="72.7200" y="24.2400" width="6.0600" height="6.0600" fill="#40FF96"/>
  <rect x="103.0200" y="24.2400" width="6.0800" height="6.0600" fill="#40FF96"/>
  <rect x="109.1000" y="24.2400" width="6.0600" height="6.0600" fill="#40FF96"/>
  <rect x="121.2200" y="24.2400" width="6.0600" height="6.0600" fill="#40FF96"/>
  <rect x="78.7800" y="30.3000" width="6.0600" height="6.0600" fill="#40FF96"/>
  <rect x="84.8400" y="30.3000" width="6.0600" height="6.0600" fill="#40FF96"/>
  <rect x="109.1000" y="30.3000" width="6.0600" height="6.0600" fill="#40FF96"/>
  <rect x="115.1600" y="30.3000" width="6.0600" height="6.0600" fill="#40FF96"/>
  <rect x="60.6000" y="36.3600" width="6.0600" height="6.0600" fill="#40FF96"/>
  <rect x="66.6600" y="36.3600" width="6.0600" height="6.0600" fill="#40FF96"/>
  <rect x="84.8400" y="36.3600" width="6.0600" height="6.0600" fill="#40FF96"/>
  <rect x="96.9600" y="36.3600" width="6.0800" height="6.0600" fill="#40FF96"/>
  <rect x="103.0200" y="36.3600" width="6.0800" height="6.0600" fill="#40FF96"/>
  <rect x="109.1000" y="36.3600" width="6.0600" height="6.0600" fill="#40FF96"/>
  <rect x="121.2200" y="36.3600" width="6.0600" height="6.0600" fill="#40FF96"/>
  <rect x="127.2800" y="36.3600" width="6.0600" height="6.0600" fill="#40FF96"/>
  <rect x="66.6600" y="42.4200" width="6.0600" height="6.0600" fill="#40FF96"/>
  <rect x="84.8400" y="42.4200" width="6.0600" height="6.0600" fill="#40FF96"/>
  <rect x="103.0200" y="42.4200" width="6.0800" height="6.0600" fill="#40FF96"/>
  <rect x="109.1000" y="42.4200" width="6.0600" height="6.0600" fill="#40FF96"/>
  <rect x="133.3400" y="42.4200" width="6.0600" height="6.0600" fill="#40FF96"/>
  <rect x="60.6000" y="48.4800" width="6.0600" height="6.0600" fill="#40FF96"/>
  <rect x="72.7200" y="48.4800" width="6.0600" height="6.0600" fill="#40FF96"/>
  <rect x="84.8400" y="48.4800" width="6.0600" height="6.0600" fill="#40FF96"/>
  <rect x="96.9600" y="48.4800" width="6.0800" height="6.0600" fill="#40FF96"/>
  <rect x="109.1000" y="48.4800" width="6.0600" height="6.0600" fill="#40FF96"/>
  <rect x="121.2200" y="48.4800" width="6.0600" height="6.0600" fill="#40FF96"/>
  <rect x="133.3400" y="48.4800" width="6.0600" height="6.0600" fill="#40FF96"/>
  <rect x="84.8400" y="54.5400" width="6.0600" height="6.0600" fill="#40FF96"/>
  <rect x="90.9000" y="54.5400" width="6.0600" height="6.0600" fill="#40FF96"/>
  <rect x="103.0200" y="54.5400" width="6.0800" height="6.0600" fill="#40FF96"/>
  <rect x="109.1000" y="54.5400" width="6.0600" height="6.0600" fill="#40FF96"/>
  <rect x="12.1200" y="60.6000" width="6.0600" height="6.0600" fill="#40FF96"/>
  <rect x="30.3000" y="60.6000" width="6.0600" height="6.0600" fill="#40FF96"/>
  <rect x="36.3600" y="60.6000" width="6.0600" height="6.0600" fill="#40FF96"/>
  <rect x="42.4200" y="60.6000" width="6.0600" height="6.0600" fill="#40FF96"/>
  <rect x="48.4800" y="60.6000" width="6.0600" height="6.0600" fill="#40FF96"/>
  <rect x="54.5400" y="60.6000" width="6.0600" height="6.0600" fill="#40FF96"/>
  <rect x="60.6000" y="60.6000" width="6.0600" height="6.0600" fill="#40FF96"/>
  <rect x="66.6600" y="60.6000" width="6.0600" height="6.0600" fill="#40FF96"/>
  <rect x="72.7200" y="60.6000" width="6.0600" height="6.0600" fill="#40FF96"/>
  <rect x="78.7800" y="60.6000" width="6.0600" height="6.0600" fill="#40FF96"/>
  <rect x="90.9000" y="60.6000" width="6.0600" height="6.0600" fill="#40FF96"/>
  <rect x="115.1600" y="60.6000" width="6.0600" height="6.0600" fill="#40FF96"/>
  <rect x="139.4000" y="60.6000" width="6.0600" height="6.0600" fill="#40FF96"/>
  <rect x="157.5800" y="60.6000" width="6.0600" height="6.0600" fill="#40FF96"/>
  <rect x="169.7000" y="60.6000" width="6.0600" height="6.0600" fill="#40FF96"/>
  <rect x="175.7600" y="60.6000" width="6.0600" height="6.0600" fill="#40FF96"/>
  <rect x="181.8200" y="60.6000" width="6.0600" height="6.0600" fill="#40FF96"/>
  <rect x="18.1800" y="66.6600" width="6.0600" height="6.0600" fill="#40FF96"/>
  <rect x="30.3000" y="66.6600" width="6.0600" height="6.0600" fill="#40FF96"/>
  <rect x="36.3600" y="66.6600" width="6.0600" height="6.0600" fill="#40FF96"/>
  <rect x="54.5400" y="66.6600" width="6.0600" height="6.0600" fill="#40FF96"/>
  <rect x="72.7200" y="66.6600" width="6.0600" height="6.0600" fill="#40FF96"/>
  <rect x="90.9000" y="66.6600" width="6.0600" height="6.0600" fill="#40FF96"/>
  <rect x="109.1000" y="66.6600" width="6.0600" height="6.0600" fill="#40FF96"/>
  <rect x="127.2800" y="66.6600" width="6.0600" height="6.0600" fill="#40FF96"/>
  <rect x="133.3400" y="66.6600" width="6.0600" height="6.0600" fill="#40FF96"/>
  <rect x="151.5200" y="66.6600" width="6.0600" height="6.0600" fill="#40FF96"/>
  <rect x="157.5800" y="66.6600" width="6.0600" height="6.0600" fill="#40FF96"/>
  <rect x="169.7000" y="66.6600" width="6.0600" height="6.0600" fill="#40FF96"/>
  <rect x="175.7600" y="66.6600" width="6.0600" height="6.0600" fill="#40FF96"/>
  <rect x="12.1200" y="72.7200" width="6.0600" height="6.0600" fill="#40FF96"/>
  <rect x="18.1800" y="72.7200" width="6.0600" height="6.0600" fill="#40FF96"/>
  <rect x="30.3000" y="72.7200" width="6.0600" height="6.0600" fill="#40FF96"/>
  <rect x="36.3600" y="72.7200" width="6.0600" height="6.0600" fill="#40FF96"/>
  <rect x="42.4200" y="72.7200" width="6.0600" height="6.0600" fill="#40FF96"/>
  <rect x="48.4800" y="72.7200" width="6.0600" height="6.0600" fill="#40FF96"/>
  <rect x="54.5400" y="72.7200" width="6.0600" height="6.0600" fill="#40FF96"/>
  <rect x="60.6000" y="72.7200" width="6.0600" height="6.0600" fill="#40FF96"/>
  <rect x="72.7200" y="72.7200" width="6.0600" height="6.0600" fill="#40FF96"/>
  <rect x="90.9000" y="72.7200" width="6.0600" height="6.0600" fill="#40FF96"/>
  <rect x="103.0200" y="72.7200" width="6.0800" height="6.0600" fill="#40FF96"/>
  <rect x="109.1000" y="72.7200" width="6.0600" height="6.0600" fill="#40FF96"/>
  <rect x="121.2200" y="72.7200" width="6.0600" height="6.0600" fill="#40FF96"/>
  <rect x="139.4000" y="72.7200" width="6.0600" height="6.0600" fill="#40FF96"/>
  <rect x="151.5200" y="72.7200" width="6.0600" height="6.0600" fill="#40FF96"/>
  <rect x="169.7000" y="72.7200" width="6.0600" height="6.0600" fill="#40FF96"/>
  <rect x="18.1800" y="78.7800" width="6.0600" height="6.0600" fill="#40FF96"/>
  <rect x="24.2400" y="78.7800" width="6.0600" height="6.0600" fill="#40FF96"/>
  <rect x="30.3000" y="78.7800" width="6.0600" height="6.0600" fill="#40FF96"/>
  <rect x="54.5400" y="78.7800" width="6.0600" height="6.0600" fill="#40FF96"/>
  <rect x="60.6000" y="78.7800" width="6.0600" height="6.0600" fill="#40FF96"/>
  <rect x="66.6600" y="78.7800" width="6.0600" height="6.0600" fill="#40FF96"/>
  <rect x="72.7200" y="78.7800" width="6.0600" height="6.0600" fill="#40FF96"/>
  <rect x="78.7800" y="78.7800" width="6.0600" height="6.0600" fill="#40FF96"/>
  <rect x="90.9000" y="78.7800" width="6.0600" height="6.0600" fill="#40FF96"/>
  <rect x="109.1000" y="78.7800" width="6.0600" height="6.0600" fill="#40FF96"/>
  <rect x="115.1600" y="78.7800" width="6.0600" height="6.0600" fill="#40FF96"/>
  <rect x="121.2200" y="78.7800" width="6.0600" height="6.0600" fill="#40FF96"/>
  <rect x="133.3400" y="78.7800" width="6.0600" height="6.0600" fill="#40FF96"/>
  <rect x="139.4000" y="78.7800" width="6.0600" height="6.0600" fill="#40FF96"/>
  <rect x="163.6400" y="78.7800" width="6.0600" height="6.0600" fill="#40FF96"/>
  <rect x="181.8200" y="78.7800" width="6.0600" height="6.0600" fill="#40FF96"/>
  <rect x="12.1200" y="84.8400" width="6.0600" height="6.0600" fill="#40FF96"/>
  <rect x="18.1800" y="84.8400" width="6.0600" height="6.0600" fill="#40FF96"/>
  <rect x="24.2400" y="84.8400" width="6.0600" height="6.0600" fill="#40FF96"/>
  <rect x="36.3600" y="84.8400" width="6.0600" height="6.0600" fill="#40FF96"/>
  <rect x="48.4800" y="84.8400" width="6.0600" height="6.0600" fill="#40FF96"/>
  <rect x="54.5400" y="84.8400" width="6.0600" height="6.0600" fill="#40FF96"/>
  <rect x="60.6000" y="84.8400" width="6.0600" height="6.0600" fill="#40FF96"/>
  <rect x="72.7200" y="84.8400" width="6.0600" height="6.0600" fill="#40FF96"/>
  <rect x="90.9000" y="84.8400" width="6.0600" height="6.0600" fill="#40FF96"/>
  <rect x="103.0200" y="84.8400" width="6.0800" height="6.0600" fill="#40FF96"/>
  <rect x="109.1000" y="84.8400" width="6.0600" height="6.0600" fill="#40FF96"/>
  <rect x="133.3400" y="84.8400" width="6.0600" height="6.0600" fill="#40FF96"/>
  <rect x="145.4600" y="84.8400" width="6.0600" height="6.0600" fill="#40FF96"/>
  <rect x="151.5200" y="84.8400" width="6.0600" height="6.0600" fill="#40FF96"/>
  <rect x="181.8200" y="84.8400" width="6.0600" height="6.0600" fill="#40FF96"/>
  <rect x="24.2400" y="90.9000" width="6.0600" height="6.0600" fill="#40FF96"/>
  <rect x="78.7800" y="90.9000" width="6.0600" height="6.0600" fill="#40FF96"/>
  <rect x="90.9000" y="90.9000" width="6.0600" height="6.0600" fill="#40FF96"/>
  <rect x="96.9600" y="90.9000" width="6.0800" height="6.0600" fill="#40FF96"/>
  <rect x="109.1000" y="90.9000" width="6.0600" height="6.0600" fill="#40FF96"/>
  <rect x="121.2200" y="90.9000" width="6.0600" height="6.0600" fill="#40FF96"/>
  <rect x="145.4600" y="90.9000" width="6.0600" height="6.0600" fill="#40FF96"/>
  <rect x="157.5800" y="90.9000" width="6.0600" height="6.0600" fill="#40FF96"/>
  <rect x="163.6400" y="90.9000" width="6.0600" height="6.0600" fill="#40FF96"/>
  <rect x="169.7000" y="90.9000" width="6.0600" height="6.0600" fill="#40FF96"/>
  <rect x="175.7600" y="90.9000" width="6.0600" height="6.0600" fill="#40FF96"/>
  <rect x="181.8200" y="90.9000" width="6.0600" height="6.0600" fill="#40FF96"/>
  <rect x="24.2400" y="96.9600" width="6.0600" height="6.0800" fill="#40FF96"/>
  <rect x="30.3000" y="96.9600" width="6.0600" height="6.0800" fill="#40FF96"/>
  <rect x="36.3600" y="96.9600" width="6.0600" height="6.0800" fill="#40FF96"/>
  <rect x="48.4800" y="96.9600" width="6.0600" height="6.0800" fill="#40FF96"/>
  <rect x="54.5400" y="96.9600" width="6.0600" height="6.0800" fill="#40FF96"/>
  <rect x="66.6600" y="96.9600" width="6.0600" height="6.0800" fill="#40FF96"/>
  <rect x="78.7800" y="96.9600" width="6.0600" height="6.0800" fill="#40FF96"/>
  <rect x="90.9000" y="96.9600" width="6.0600" height="6.0800" fill="#40FF96"/>
  <rect x="109.1000" y="96.9600" width="6.0600" height="6.0800" fill="#40FF96"/>
  <rect x="127.2800" y="96.9600" width="6.0600" height="6.0800" fill="#40FF96"/>
  <rect x="133.3400" y="96.9600" width="6.0600" height="6.0800" fill="#40FF96"/>
  <rect x="151.5200" y="96.9600" width="6.0600" height="6.0800" fill="#40FF96"/>
  <rect x="169.7000" y="96.9600" width="6.0600" height="6.0800" fill="#40FF96"/>
  <rect x="181.8200" y="96.9600" width="6.0600" height="6.0800" fill="#40FF96"/>
  <rect x="18.1800" y="103.0400" width="6.0600" height="6.0600" fill="#40FF96"/>
  <rect x="30.3000" y="103.0400" width="6.0600" height="6.0600" fill="#40FF96"/>
  <rect x="72.7200" y="103.0400" width="6.0600" height="6.0600" fill="#40FF96"/>
  <rect x="78.7800" y="103.0400" width="6.0600" height="6.0600" fill="#40FF96"/>
  <rect x="103.0200" y="103.0400" width="6.0800" height="6.0600" fill="#40FF96"/>
  <rect x="127.2800" y="103.0400" width="6.0600" height="6.0600" fill="#40FF96"/>
  <rect x="139.4000" y="103.0400" width="6.0600" height="6.0600" fill="#40FF96"/>
  <rect x="151.5200" y="103.0400" width="6.0600" height="6.0600" fill="#40FF96"/>
  <rect x="157.5800" y="103.0400" width="6.0600" height="6.0600" fill="#40FF96"/>
  <rect x="169.7000" y="103.0400" width="6.0600" height="6.0600" fill="#40FF96"/>
  <rect x="181.8200" y="103.0400" width="6.0600" height="6.0600" fill="#40FF96"/>
  <rect x="18.1800" y="109.1000" width="6.0600" height="6.0600" fill="#40FF96"/>
  <rect x="48.4800" y="109.1000" width="6.0600" height="6.0600" fill="#40FF96"/>
  <rect x="54.5400" y="109.1000" width="6.0600" height="6.0600" fill="#40FF96"/>
  <rect x="66.6600" y="109.1000" width="6.0600" height="6.0600" fill="#40FF96"/>
  <rect x="72.7200" y="109.1000" width="6.0600" height="6.0600" fill="#40FF96"/>
  <rect x="96.9600" y="109.1000" width="6.0800" height="6.0600" fill="#40FF96"/>
  <rect x="109.1000" y="109.1000" width="6.0600" height="6.0600" fill="#40FF96"/>
  <rect x="121.2200" y="109.1000" width="6.0600" height="6.0600" fill="#40FF96"/>
  <rect x="127.2800" y="109.1000" width="6.0600" height="6.0600" fill="#40FF96"/>
  <rect x="133.3400" y="109.1000" width="6.0600" height="6.0600" fill="#40FF96"/>
  <rect x="163.6400" y="109.1000" width="6.0600" height="6.0600" fill="#40FF96"/>
  <rect x="12.1200" y="115.1600" width="6.0600" height="6.0600" fill="#40FF96"/>
  <rect x="24.2400" y="115.1600" width="6.0600" height="6.0600" fill="#40FF96"/>
  <rect x="30.3000" y="115.1600" width="6.0600" height="6.0600" fill="#40FF96"/>
  <rect x="54.5400" y="115.1600" width="6.0600" height="6.0600" fill="#40FF96"/>
  <rect x="60.6000" y="115.1600" width="6.0600" height="6.0600" fill="#40FF96"/>
  <rect x="72.7200" y="115.1600" width="6.0600" height="6.0600" fill="#40FF96"/>
  <rect x="84.8400" y="115.1600" width="6.0600" height="6.0600" fill="#40FF96"/>
  <rect x="90.9000" y="115.1600" width="6.0600" height="6.0600" fill="#40FF96"/>
  <rect x="96.9600" y="115.1600" width="6.0800" height="6.0600" fill="#40FF96"/>
  <rect x="109.1000" y="115.1600" width="6.0600" height="6.0600" fill="#40FF96"/>
  <rect x="121.2200" y="115.1600" width="6.0600" height="6.0600" fill="#40FF96"/>
  <rect x="127.2800" y="115.1600" width="6.0600" height="6.0600" fill="#40FF96"/>
  <rect x="133.3400" y="115.1600" width="6.0600" height="6.0600" fill="#40FF96"/>
  <rect x="139.4000" y="115.1600" width="6.0600" height="6.0600" fill="#40FF96"/>
  <rect x="157.5800" y="115.1600" width="6.0600" height="6.0600" fill="#40FF96"/>
  <rect x="169.7000" y="115.1600" width="6.0600" height="6.0600" fill="#40FF96"/>
  <rect x="175.7600" y="115.1600" width="6.0600" height="6.0600" fill="#40FF96"/>
  <rect x="12.1200" y="121.2200" width="6.0600" height="6.0600" fill="#40FF96"/>
  <rect x="18.1800" y="121.2200" width="6.0600" height="6.0600" fill="#40FF96"/>
  <rect x="36.3600" y="121.2200" width="6.0600" height="6.0600" fill="#40FF96"/>
  <rect x="42.4200" y="121.2200" width="6.0600" height="6.0600" fill="#40FF96"/>
  <rect x="48.4800" y="121.2200" width="6.0600" height="6.0600" fill="#40FF96"/>
  <rect x="60.6000" y="121.2200" width="6.0600" height="6.0600" fill="#40FF96"/>
  <rect x="72.7200" y="121.2200" width="6.0600" height="6.0600" fill="#40FF96"/>
  <rect x="78.7800" y="121.2200" width="6.0600" height="6.0600" fill="#40FF96"/>
  <rect x="103.0200" y="121.2200" width="6.0800" height="6.0600" fill="#40FF96"/>
  <rect x="127.2800" y="121.2200" width="6.0600" height="6.0600" fill="#40FF96"/>
  <rect x="139.4000" y="121.2200" width="6.0600" height="6.0600" fill="#40FF96"/>
  <rect x="163.6400" y="121.2200" width="6.0600" height="6.0600" fill="#40FF96"/>
  <rect x="181.8200" y="121.2200" width="6.0600" height="6.0600" fill="#40FF96"/>
  <rect x="12.1200" y="127.2800" width="6.0600" height="6.0600" fill="#40FF96"/>
  <rect x="18.1800" y="127.2800" width="6.0600" height="6.0600" fill="#40FF96"/>
  <rect x="36.3600" y="127.2800" width="6.0600" height="6.0600" fill="#40FF96"/>
  <rect x="42.4200" y="127.2800" width="6.0600" height="6.0600" fill="#40FF96"/>
  <rect x="60.6000" y="127.2800" width="6.0600" height="6.0600" fill="#40FF96"/>
  <rect x="66.6600" y="127.2800" width="6.0600" height="6.0600" fill="#40FF96"/>
  <rect x="96.9600" y="127.2800" width="6.0800" height="6.0600" fill="#40FF96"/>
  <rect x="133.3400" y="127.2800" width="6.0600" height="6.0600" fill="#40FF96"/>
  <rect x="145.4600" y="127.2800" width="6.0600" height="6.0600" fill="#40FF96"/>
  <rect x="151.5200" y="127.2800" width="6.0600" height="6.0600" fill="#40FF96"/>
  <rect x="157.5800" y="127.2800" width="6.0600" height="6.0600" fill="#40FF96"/>
  <rect x="163.6400" y="127.2800" width="6.0600" height="6.0600" fill="#40FF96"/>
  <rect x="169.7000" y="127.2800" width="6.0600" height="6.0600" fill="#40FF96"/>
  <rect x="12.1200" y="133.3400" width="6.0600" height="6.0600" fill="#40FF96"/>
  <rect x="18.1800" y="133.3400" width="6.0600" height="6.0600" fill="#40FF96"/>
  <rect x="24.2400" y="133.3400" width="6.0600" height="6.0600" fill="#40FF96"/>
  <rect x="48.4800" y="133.3400" width="6.0600" height="6.0600" fill="#40FF96"/>
  <rect x="66.6600" y="133.3400" width="6.0600" height="6.0600" fill="#40FF96"/>
  <rect x="84.8400" y="133.3400" width="6.0600" height="6.0600" fill="#40FF96"/>
  <rect x="90.9000" y="133.3400" width="6.0600" height="6.0600" fill="#40FF96"/>
  <rect x="96.9600" y="133.3400" width="6.0800" height="6.0600" fill="#40FF96"/>
  <rect x="103.0200" y="133.3400" width="6.0800" height="6.0600" fill="#40FF96"/>
  <rect x="109.1000" y="133.3400" width="6.0600" height="6.0600" fill="#40FF96"/>
  <rect x="115.1600" y="133.3400" width="6.0600" height="6.0600" fill="#40FF96"/>
  <rect x="127.2800" y="133.3400" width="6.0600" height="6.0600" fill="#40FF96"/>
  <rect x="133.3400" y="133.3400" width="6.0600" height="6.0600" fill="#40FF96"/>
  <rect x="139.4000" y="133.3400" width="6.0600" height="6.0600" fill="#40FF96"/>
  <rect x="145.4600" y="133.3400" width="6.0600" height="6.0600" fill="#40FF96"/>
  <rect x="151.5200" y="133.3400" width="6.0600" height="6.0600" fill="#40FF96"/>
  <rect x="157.5800" y="133.3400" width="6.0600" height="6.0600" fill="#40FF96"/>
  <rect x="163.6400" y="133.3400" width="6.0600" height="6.0600" fill="#40FF96"/>
  <rect x="169.7000" y="133.3400" width="6.0600" height="6.0600" fill="#40FF96"/>
  <rect x="175.7600" y="133.3400" width="6.0600" height="6.0600" fill="#40FF96"/>
  <rect x="60.6000" y="139.4000" width="6.0600" height="6.0600" fill="#40FF96"/>
  <rect x="66.6600" y="139.4000" width="6.0600" height="6.0600" fill="#40FF96"/>
  <rect x="72.7200" y="139.4000" width="6.0600" height="6.0600" fill="#40FF96"/>
  <rect x="96.9600" y="139.4000" width="6.0800" height="6.0600" fill="#40FF96"/>
  <rect x="121.2200" y="139.4000" width="6.0600" height="6.0600" fill="#40FF96"/>
  <rect x="133.3400" y="139.4000" width="6.0600" height="6.0600" fill="#40FF96"/>
  <rect x="157.5800" y="139.4000" width="6.0600" height="6.0600" fill="#40FF96"/>
  <rect x="163.6400" y="139.4000" width="6.0600" height="6.0600" fill="#40FF96"/>
  <rect x="60.6000" y="145.4600" width="6.0600" height="6.0600" fill="#40FF96"/>
  <rect x="66.6600" y="145.4600" width="6.0600" height="6.0600" fill="#40FF96"/>
  <rect x="78.7800" y="145.4600" width="6.0600" height="6.0600" fill="#40FF96"/>
  <rect x="84.8400" y="145.4600" width="6.0600" height="6.0600" fill="#40FF96"/>
  <rect x="96.9600" y="145.4600" width="6.0800" height="6.0600" fill="#40FF96"/>
  <rect x="121.2200" y="145.4600" width="6.0600" height="6.0600" fill="#40FF96"/>
  <rect x="127.2800" y="145.4600" width="6.0600" height="6.0600" fill="#40FF96"/>
  <rect x="133.3400" y="145.4600" width="6.0600" height="6.0600" fill="#40FF96"/>
  <rect x="145.4600" y="145.4600" width="6.0600" height="6.0600" fill="#40FF96"/>
  <rect x="157.5800" y="145.4600" width="6.0600" height="6.0600" fill="#40FF96"/>
  <rect x="163.6400" y="145.4600" width="6.0600" height="6.0600" fill="#40FF96"/>
  <rect x="60.6000" y="151.5200" width="6.0600" height="6.0600" fill="#40FF96"/>
  <rect x="84.8400" y="151.5200" width="6.0600" height="6.0600" fill="#40FF96"/>
  <rect x="96.9600" y="151.5200" width="6.0800" height="6.0600" fill="#40FF96"/>
  <rect x="103.0200" y="151.5200" width="6.0800" height="6.0600" fill="#40FF96"/>
  <rect x="115.1600" y="151.5200" width="6.0600" height="6.0600" fill="#40FF96"/>
  <rect x="121.2200" y="151.5200" width="6.0600" height="6.0600" fill="#40FF96"/>
  <rect x="127.2800" y="151.5200" width="6.0600" height="6.0600" fill="#40FF96"/>
  <rect x="133.3400" y="151.5200" width="6.0600" height="6.0600" fill="#40FF96"/>
  <rect x="157.5800" y="151.5200" width="6.0600" height="6.0600" fill="#40FF96"/>
  <rect x="60.6000" y="157.5800" width="6.0600" height="6.0600" fill="#40FF96"/>
  <rect x="72.7200" y="157.5800" width="6.0600" height="6.0600" fill="#40FF96"/>
  <rect x="78.7800" y="157.5800" width="6.0600" height="6.0600" fill="#40FF96"/>
  <rect x="90.9000" y="157.5800" width="6.0600" height="6.0600" fill="#40FF96"/>
  <rect x="96.9600" y="157.5800" width="6.0800" height="6.0600" fill="#40FF96"/>
  <rect x="109.1000" y="157.5800" width="6.0600" height="6.0600" fill="#40FF96"/>
  <rect x="127.2800" y="157.5800" width="6.0600" height="6.0600" fill="#40FF96"/>
  <rect x="133.3400" y="157.5800" width="6.0600" height="6.0600" fill="#40FF96"/>
  <rect x="139.4000" y="157.5800" width="6.0600" height="6.0600" fill="#40FF96"/>
  <rect x="145.4600" y="157.5800" width="6.0600" height="6.0600" fill="#40FF96"/>
  <rect x="151.5200" y="157.5800" width="6.0600" height="6.0600" fill="#40FF96"/>
  <rect x="157.5800" y="157.5800" width="6.0600" height="6.0600" fill="#40FF96"/>
  <rect x="163.6400" y="157.5800" width="6.0600" height="6.0600" fill="#40FF96"/>
  <rect x="60.6000" y="163.6400" width="6.0600" height="6.0600" fill="#40FF96"/>
  <rect x="78.7800" y="163.6400" width="6.0600" height="6.0600" fill="#40FF96"/>
  <rect x="84.8400" y="163.6400" width="6.0600" height="6.0600" fill="#40FF96"/>
  <rect x="115.1600" y="163.6400" width="6.0600" height="6.0600" fill="#40FF96"/>
  <rect x="121.2200" y="163.6400" width="6.0600" height="6.0600" fill="#40FF96"/>
  <rect x="127.2800" y="163.6400" width="6.0600" height="6.0600" fill="#40FF96"/>
  <rect x="139.4000" y="163.6400" width="6.0600" height="6.0600" fill="#40FF96"/>
  <rect x="151.5200" y="163.6400" width="6.0600" height="6.0600" fill="#40FF96"/>
  <rect x="175.7600" y="163.6400" width="6.0600" height="6.0600" fill="#40FF96"/>
  <rect x="72.7200" y="169.7000" width="6.0600" height="6.0600" fill="#40FF96"/>
  <rect x="84.8400" y="169.7000" width="6.0600" height="6.0600" fill="#40FF96"/>
  <rect x="103.0200" y="169.7000" width="6.0800" height="6.0600" fill="#40FF96"/>
  <rect x="109.1000" y="169.7000" width="6.0600" height="6.0600" fill="#40FF96"/>
  <rect x="115.1600" y="169.7000" width="6.0600" height="6.0600" fill="#40FF96"/>
  <rect x="133.3400" y="169.7000" width="6.0600" height="6.0600" fill="#40FF96"/>
  <rect x="139.4000" y="169.7000" width="6.0600" height="6.0600" fill="#40FF96"/>
  <rect x="151.5200" y="169.7000" width="6.0600" height="6.0600" fill="#40FF96"/>
  <rect x="157.5800" y="169.7000" width="6.0600" height="6.0600" fill="#40FF96"/>
  <rect x="169.7000" y="169.7000" width="6.0600" height="6.0600" fill="#40FF96"/>
  <rect x="175.7600" y="169.7000" width="6.0600" height="6.0600" fill="#40FF96"/>
  <rect x="181.8200" y="169.7000" width="6.0600" height="6.0600" fill="#40FF96"/>
  <rect x="66.6600" y="175.7600" width="6.0600" height="6.0600" fill="#40FF96"/>
  <rect x="84.8400" y="175.7600" width="6.0600" height="6.0600" fill="#40FF96"/>
  <rect x="90.9000" y="175.7600" width="6.0600" height="6.0600" fill="#40FF96"/>
  <rect x="96.9600" y="175.7600" width="6.0800" height="6.0600" fill="#40FF96"/>
  <rect x="139.4000" y="175.7600" width="6.0600" height="6.0600" fill="#40FF96"/>
  <rect x="145.4600" y="175.7600" width="6.0600" height="6.0600" fill="#40FF96"/>
  <rect x="151.5200" y="175.7600" width="6.0600" height="6.0600" fill="#40FF96"/>
  <rect x="163.6400" y="175.7600" width="6.0600" height="6.0600" fill="#40FF96"/>
  <rect x="169.7000" y="175.7600" width="6.0600" height="6.0600" fill="#40FF96"/>
  <rect x="181.8200" y="175.7600" width="6.0600" height="6.0600" fill="#40FF96"/>
  <rect x="60.6000" y="181.8200" width="6.0600" height="6.0600" fill="#40FF96"/>
  <rect x="90.9000" y="181.8200" width="6.0600" height="6.0600" fill="#40FF96"/>
  <rect x="96.9600" y="181.8200" width="6.0800" height="6.0600" fill="#40FF96"/>
  <rect x="103.0200" y="181.8200" width="6.0800" height="6.0600" fill="#40FF96"/>
  <rect x="109.1000" y="181.8200" width="6.0600" height="6.0600" fill="#40FF96"/>
  <rect x="133.3400" y="181.8200" width="6.0600" height="6.0600" fill="#40FF96"/>
  <rect x="157.5800" y="181.8200" width="6.0600" height="6.0600" fill="#40FF96"/>
  <rect x="163.6400" y="181.8200" width="6.0600" height="6.0600" fill="#40FF96"/>
  <rect x="12.1200" y="12.1200" width="42.4200" height="42.4200" fill="#40FF96"/>
  <rect x="145.4600" y="12.1200" width="42.4200" height="42.4200" fill="#40FF96"/>
  <rect x="12.1200" y="145.4600" width="42.4200" height="42.4200" fill="#40FF96"/>
  <rect x="24.2400" y="24.2400" width="18.1800" height="18.1800" fill="#40FF96"/>
  <rect x="157.5800" y="24.2400" width="18.1800" height="18.1800" fill="#40FF96"/>
  <rect x="24.2400" y="157.5800" width="18.1800" height="18.1800" fill="#40FF96"/>
</svg>
