<svg preserveAspectRatio="none" width="100%" height="100%" overflow="visible" style="display: block;" viewBox="0 0 19.6772 19.6769" fill="none" xmlns="http://www.w3.org/2000/svg">
<g id="Group">
<path id="Vector" d="M6.8 15.2769C5.6 18.8769 0.8 18.8769 0.8 18.8769C0.8 18.8769 0.8 14.0769 4.4 12.8769" stroke="var(--stroke-0, #759AC6)" stroke-width="1.6"/>
<path id="Vector_2" d="M18.8 0.876949C18.8 0.876949 15.651 1.14295 13.8 1.87695C12.353 2.44995 10.933 3.61195 9.7 4.87695C7.433 7.20295 5.8 9.87695 5.8 9.87695L9.8 13.8769C9.8 13.8769 12.474 12.2439 14.8 9.97695C16.065 8.74395 17.227 7.32395 17.8 5.87695C18.533 4.02595 18.8 0.876949 18.8 0.876949Z" stroke="var(--stroke-0, #759AC6)" stroke-width="1.6"/>
<path id="Vector_3" d="M9.8 13.8769L10.8 18.8769H11.8L14.8 15.8769V9.97695" stroke="var(--stroke-0, #759AC6)" stroke-width="1.6"/>
<path id="Vector_4" d="M5.8 9.87695L0.8 8.87695V7.87695L3.8 4.87695H9.7" stroke="var(--stroke-0, #759AC6)" stroke-width="1.6"/>
</g>
</svg>
